<?xml version="1.0"?>
<svg xmlns="http://www.w3.org/2000/svg" xmlns:xlink="http://www.w3.org/1999/xlink" xmlns:svgjs="http://svgjs.com/svgjs" version="1.1" width="512" height="512" x="0" y="0" viewBox="0 0 480 480.00001" style="enable-background:new 0 0 512 512" xml:space="preserve" class=""><g><path xmlns="http://www.w3.org/2000/svg" d="m8 144h32c4.417969 0 8-3.582031 8-8v-8h248c13.253906 0 24 10.746094 24 24v32c0 4.417969 3.582031 8 8 8h96c4.417969 0 8-3.582031 8-8v-32c-.082031-75.074219-60.925781-135.917969-136-136h-248v-8c0-4.417969-3.582031-8-8-8h-32c-4.417969 0-8 3.582031-8 8v128c0 4.417969 3.582031 8 8 8zm408 32h-80v-16h80zm-120-144c63.105469.101562 115.359375 49.039062 119.59375 112h-80.394531c-3.828125-18.613281-20.199219-31.976562-39.199219-32h-248v-80zm-280-16h16v112h-16zm0 0" fill="#008abb" data-original="#000000" style="" class=""/><path xmlns="http://www.w3.org/2000/svg" d="m382.550781 211.414062c-1.570312-2.023437-3.988281-3.210937-6.550781-3.210937s-4.980469 1.1875-6.550781 3.210937l-46.113281 65.867188c-13.414063 19.167969-15.050782 44.203125-4.246094 64.953125 10.808594 20.75 32.257812 33.765625 55.652344 33.765625h2.515624c23.394532 0 44.84375-13.015625 55.652344-33.765625 10.804688-20.75 9.167969-45.785156-4.246094-64.953125zm-5.292969 148.585938h-2.515624c-17.429688 0-33.414063-9.695312-41.460938-25.15625-8.050781-15.460938-6.828125-34.117188 3.167969-48.394531l39.550781-56.496094 39.550781 56.496094c9.996094 14.277343 11.21875 32.933593 3.167969 48.394531-8.046875 15.460938-24.03125 25.15625-41.460938 25.15625zm0 0" fill="#008abb" data-original="#000000" style="" class=""/><path xmlns="http://www.w3.org/2000/svg" d="m466.800781 391.585938c-8.257812-5.675782-18.78125-6.902344-28.121093-3.28125l-70.679688 27.320312c-.207031-17.527344-14.472656-31.625-32-31.625h-70.878906l-36.265625-10.398438c-26.914063-7.539062-55.386719-7.484374-82.269531.160157l-35.707032 10.238281h-102.878906c-4.417969 0-8 3.582031-8 8v80c0 4.417969 3.582031 8 8 8h360c.980469 0 1.957031-.175781 2.871094-.527344l89.664062-34.488281c10.515625-4.066406 17.914063-13.617187 19.230469-24.8125 1.3125-11.195313-3.679687-22.199219-12.964844-28.585937zm-12 38.460937-88.289062 33.953125h-350.511719v-64h96c.746094 0 1.484375-.105469 2.199219-.3125l36.800781-10.503906c24.007812-6.828125 49.433594-6.886719 73.472656-.160156l37.34375 10.664062c.710938.207031 1.445313.3125 2.183594.3125h72c8.835938 0 16 7.164062 16 16s-7.164062 16-16 16h-80v16h80c10.027344-.003906 19.476562-4.710938 25.519531-12.710938l82.929688-32.089843c4.421875-1.695313 9.398437-1.105469 13.304687 1.578125s6.242188 7.117187 6.246094 11.855468c-.023438 5.9375-3.675781 11.257813-9.207031 13.414063zm0 0" fill="#008abb" data-original="#000000" style="" class=""/><path xmlns="http://www.w3.org/2000/svg" d="m387.929688 301.335938c4.203124 4.703124 5.25 11.4375 2.675781 17.199218-2.578125 5.757813-8.296875 9.464844-14.605469 9.464844v16c12.621094 0 24.0625-7.417969 29.210938-18.9375 5.152343-11.519531 3.050781-24.992188-5.363282-34.398438zm0 0" fill="#008abb" data-original="#000000" style="" class=""/></g></svg>
